<svg id="Ebene_1" data-name="Ebene 1" xmlns="http://www.w3.org/2000/svg" xmlns:xlink="http://www.w3.org/1999/xlink" viewBox="0 0 3758 1075"><defs><clipPath id="clip-path"><path d="M1673.94,900.7V840c0-19.08,9.43-26.66,20.69-26.66,9.65,0,16.32,5.28,16.32,21.6V900.7H1750V824.16c0-26.66-16.09-40.68-39.77-40.68-17.93,0-32,8-39.3,24.36l-1.15-22.06h-34.94V900.7Zm-97.45-67.34h-43.21c2.29-15.4,9.65-22.53,22.06-22.53C1567.52,810.83,1574.65,818.64,1576.49,833.36ZM1557.64,903c26.66,0,46.2-10.11,52.87-30.11l-31.72-10.11c-2.53,8-9.66,12.64-21.15,12.64-13.1,0-21.61-6-24.13-20.92h78.37a72.32,72.32,0,0,0,1.15-12.87c0-36.32-20-58.15-57.46-58.15-38.38,0-60,21.83-60,59.76S1517.42,903,1557.64,903Zm-144.81-28.73c-13.33,0-21.6-9.43-21.6-31s8.27-31,21.6-31c12.65,0,20.46,9.42,21.38,26.43v9.2C1433.29,865.3,1425.25,874.27,1412.83,874.27ZM1399.27,903c17.7,0,30.8-9.65,37.47-24.13l1.38,21.83h35.16V737.05h-39.07v68c-6.44-13.1-17.93-21.6-34.71-21.6-29.65,0-47.58,22.06-47.58,60.22C1351.92,881.16,1369.62,903,1399.27,903Zm-116.76,0c37,0,54.7-16.55,54.7-37.7,0-19.76-13.56-30.57-47.58-36.54-16.09-3-21.14-6-21.14-10.58s6-8.73,17.47-8.73c13.79,0,23.9,4.83,30.34,16.32l21.14-20.69c-9.88-13.56-25-21.6-52.63-21.6-37.47,0-55.4,19.3-55.4,38.15s12.64,30.11,47.58,37c15.4,3.22,20.92,6,20.92,10.34,0,4.83-6.44,8-17.24,8-14.71,0-27.12-4.83-34-16.32l-20.23,22.06C1238.15,897,1257.22,903,1282.51,903Zm-106-69.64h-43.22c2.3-15.4,9.66-22.53,22.07-22.53C1167.58,810.83,1174.71,818.64,1176.55,833.36ZM1157.7,903c26.66,0,46.2-10.11,52.86-30.11l-31.71-10.11c-2.53,8-9.66,12.64-21.15,12.64-13.1,0-21.61-6-24.14-20.92h78.38a72.32,72.32,0,0,0,1.15-12.87c0-36.32-20-58.15-57.46-58.15-38.38,0-60,21.83-60,59.76S1117.48,903,1157.7,903Zm-114.93-2.3V842.78c0-18.16,12-27.12,25.75-27.12,6,0,11.49,1.61,14.48,3.44l4.13-33.09c-2.52-1.38-6.66-2.53-12.41-2.53-17.93,0-29.42,10.11-34.93,27.12l-1.61-24.82H1003.7V900.7ZM902.33,870.82H881.42V778.88h20.91c25.75,0,37,15.63,37,46S928.08,870.82,902.33,870.82Zm3.91,29.88c47.58,0,73.55-27.35,73.55-75.85S953.82,749,906.24,749H841.88V900.7ZM3023.17,653.19c-22.3,0-32-3.9-32-10.57,0-5.52,4.83-8,17.47-8h31.49c10.57,0,14,2.75,14,7.35C3054.2,648.37,3044.32,653.19,3023.17,653.19Zm-1.84-85.73c-10.11,0-17-6.44-17-16.55s6.9-16.78,17-16.78,17,6.67,17,16.78S3031.44,567.46,3021.33,567.46Zm-.92,111c38.85,0,64.59-13.79,64.59-40.46,0-23-15.4-34.47-41.83-34.47h-39.08c-7.81,0-12-2.76-12-7.82,0-4.14,2.07-6.66,7.13-8a105.84,105.84,0,0,0,22.06,2.06c35.63,0,56.08-14,56.08-38.84,0-14.25-6.66-25-19.3-31.72,3.45-7.12,12.41-12,26.89-9.88l-4.37-26c-22.52-1.84-33.33,13.11-36.31,31a99.06,99.06,0,0,0-23-2.52c-35.63,0-56.08,14.25-56.08,39.07,0,14.25,6.43,24.82,18.85,31.49-11.27,3.91-18.85,12.41-18.85,23.44,0,12,7.58,19.54,17.7,23.91-15.17,3.68-21.38,12.18-21.38,21.6C2961.57,667.9,2978.81,678.48,3020.41,678.48Zm-153.54-49.42V568.38c0-19.08,9.43-26.66,20.69-26.66,9.65,0,16.32,5.28,16.32,21.6v65.74H2943V552.52c0-26.66-16.09-40.68-39.76-40.68-17.93,0-32,8-39.31,24.36l-1.15-22.07H2827.8V629.06Zm-143,2.3c18.62,0,32.41-7.59,39.77-23.68l1.15,21.38h34.93V514.13h-39.07V575c0,18.39-9,26.44-21.15,26.44-10.11,0-15.86-4.83-15.86-20.46V514.13H2684.6V590.9C2684.6,619.87,2700.46,631.36,2723.9,631.36Zm-79.29,0c8.5,0,18.38-2.3,23.9-5.75l2.53-24.13a33.12,33.12,0,0,1-11.72,2.07c-8.05,0-10.58-4.14-10.58-14.25V465.41h-39.07V595C2609.67,620.55,2620,631.36,2644.61,631.36Zm-83.21,0c11.95,0,24.82-3.45,32.41-8.74l-3.91-24.13a27.24,27.24,0,0,1-16.55,5.06c-9.65,0-15.17-4.37-15.17-15.4V542h34.25V514.13h-34.25V477.59l-39.07,10.8v25.74h-48.27V477.59l-39.08,10.8v25.74H2412V542h19.76v52.63c.23,26.66,15.63,36.78,40.69,36.78,11.49,0,24.13-3.45,31.26-8.74l-4.37-24.36c-4.37,3.45-8.5,5.29-15.4,5.29-9.42,0-13.1-4.37-13.1-15.4V542h48.27v52.63C2519.11,621.24,2535.2,631.36,2561.4,631.36Zm-166.18-2.3V514.13h-39.08V629.06ZM2375.68,500.8c15.86,0,22.75-5.74,22.75-18.62,0-13.1-6.89-18.84-22.75-18.84s-22.76,5.74-22.76,18.84C2352.92,495.06,2359.82,500.8,2375.68,500.8ZM2178.93,629.06V568.38c0-18.85,9.42-26.66,20.22-26.66,9.2,0,15.63,5.28,15.63,19.76v67.58h39.08V567.69c0-17.24,8.5-26,20.23-26,9.42,0,15.63,5.28,15.63,19.76v67.58h39.07V552.52c0-26.89-16.78-40.68-39.3-40.68-16.78,0-31,8-38.62,23.21-5.52-15.4-19.31-23.21-36.32-23.21-17.46,0-31.26,8.27-38.61,24.36l-1.15-22.07h-34.94V629.06Zm-98.84,0V571.14c0-18.16,11.95-27.13,25.74-27.13,6,0,11.5,1.61,14.49,3.45l4.13-33.1c-2.53-1.38-6.66-2.52-12.41-2.52-17.93,0-29.42,10.11-34.94,27.12l-1.61-24.83H2041V629.06Zm-97.46-67.35h-43.21c2.3-15.4,9.66-22.52,22.07-22.52C1973.67,539.19,1980.8,547,1982.63,561.71Zm-18.84,69.65c26.66,0,46.2-10.12,52.86-30.11l-31.72-10.12c-2.53,8-9.65,12.65-21.14,12.65-13.1,0-21.61-6-24.14-20.92H2018a72.32,72.32,0,0,0,1.15-12.87c0-36.32-20-58.15-57.46-58.15-38.39,0-60,21.83-60,59.76S1923.56,631.36,1963.79,631.36Zm-109.18-2.3L1896,514.13h-40.45l-24.14,90.11-23.67-90.11h-41.15L1808,629.06Zm-110.33,2.3c8.5,0,18.39-2.3,23.9-5.75l2.53-24.13a33.08,33.08,0,0,1-11.72,2.07c-8,0-10.57-4.14-10.57-14.25V465.41h-39.08V595C1709.34,620.55,1719.68,631.36,1744.28,631.36Zm-124.81-25.29c-7.13,0-11.26-3.44-11.26-9.88s3.9-9.65,13.56-12l18.62-4.37v9.88C1640.39,600.33,1629.12,606.07,1619.47,606.07Zm56.31,25.29a32,32,0,0,0,15.63-3.68l3-21.84a22.33,22.33,0,0,1-7.12.92q-8.28,0-8.28-9V556c0-29.65-19.54-44.13-54.93-44.13-31.26,0-49.19,13.56-53.1,35.39l31.72,9.2c2.3-13.33,10.34-17.7,21.38-17.7,10.34,0,16.32,6.66,16.32,17v4.13l-26,5.06c-32.64,6.44-44.82,18.62-44.82,37.7,0,18.61,12.87,28.73,35.63,28.73,21.15,0,34.48-6.67,40.91-17.7C1649.58,626.07,1660.38,631.36,1675.78,631.36Zm-127.33-2.3V514.13h-39.08V629.06ZM1528.91,500.8c15.86,0,22.75-5.74,22.75-18.62,0-13.1-6.89-18.84-22.75-18.84s-22.76,5.74-22.76,18.84C1506.15,495.06,1513.05,500.8,1528.91,500.8Zm-79.3,128.26V571.14c0-18.16,12-27.13,25.74-27.13,6,0,11.5,1.61,14.48,3.45l4.14-33.1c-2.53-1.38-6.66-2.52-12.41-2.52-17.93,0-29.42,10.11-34.94,27.12L1445,514.13h-34.47V629.06Zm-97.46-67.35h-43.21c2.3-15.4,9.65-22.52,22.07-22.52C1343.19,539.19,1350.31,547,1352.15,561.71Zm-18.84,69.65c26.66,0,46.2-10.12,52.86-30.11l-31.72-10.12c-2.53,8-9.65,12.65-21.14,12.65-13.11,0-21.61-6-24.14-20.92h78.38A72.32,72.32,0,0,0,1388.7,570c0-36.32-20-58.15-57.46-58.15-38.39,0-60,21.83-60,59.76S1293.08,631.36,1333.31,631.36Zm-105.51,0c12,0,24.83-3.45,32.41-8.74l-3.9-24.13a26.78,26.78,0,0,1-16.55,5.06c-9.66,0-15.17-4.37-15.17-15.4V542h34.47V514.13h-34.47V477.59l-39.08,10.8v25.74h-19.77V542h19.77v52.63C1185.74,621.24,1201.83,631.36,1227.8,631.36ZM1091,606.07c-7.12,0-11.26-3.44-11.26-9.88s3.91-9.65,13.56-12l18.62-4.37v9.88C1112,600.33,1100.7,606.07,1091,606.07Zm56.32,25.29a32,32,0,0,0,15.63-3.68l3-21.84a22.29,22.29,0,0,1-7.12.92q-8.28,0-8.28-9V556c0-29.65-19.53-44.13-54.93-44.13-31.26,0-49.19,13.56-53.1,35.39l31.72,9.2c2.3-13.33,10.35-17.7,21.38-17.7,10.34,0,16.32,6.66,16.32,17v4.13l-26,5.06c-32.64,6.44-44.83,18.62-44.83,37.7,0,18.61,12.88,28.73,35.63,28.73,21.15,0,34.48-6.67,40.91-17.7C1121.15,626.07,1132,631.36,1147.36,631.36Zm-270.31-2.3V559.41l-1.15-46.66h.46l37.47,116.31h31.95l37.46-116.31h.46l-1.15,46.66v69.65h34.94V477.36h-54L939.8,554.82l-8.73,31.95h-.46l-8.51-32.18-23.9-77.23H841.88v151.7ZM2346.49,357.42V326.85h-81.6v-31h62.52V267.09h-62.52v-30.8h78.61V205.72H2225.36v151.7Zm-222.27,0V299h62.52V268.46h-62.52V236.29h78.38V205.72H2084.69v151.7Zm-140.67,0V299h62.52V268.46h-62.52V236.29h78.38V205.72H1944v151.7Zm-140.89-28.73c-22.07,0-34-16.09-34-47.12s11.95-47.12,34-47.12c21.83,0,33.78,16.09,33.78,47.12S1864.49,328.69,1842.66,328.69Zm0,31c46.2,0,74.24-29.2,74.24-78.15s-28-78.15-74.24-78.15-74.48,29.19-74.48,78.15S1796.46,359.72,1842.66,359.72Zm-133.78-2.3V236.29h49.42V205.72H1619.7v30.57h49.65V357.42Zm-164.11,2.3c36.54,0,64.13-17,64.13-46.66,0-26.67-16.32-40-57.93-47.12-23.21-4.14-30.34-8.74-30.34-16.55,0-8.74,8.51-15.17,24.83-15.17,19.31,0,32.18,7.12,42.29,22.29l22.3-25.74c-17.47-19.54-36.78-27.35-65.28-27.35-41.6,0-65.28,20.91-65.28,49.41,0,26,16.32,39.31,58.84,47.12,22.53,4.37,29.65,8.28,29.65,15.17,0,8.74-8.27,14-25.28,14-20.23,0-34.94-5.52-47.12-23L1475.12,334C1490.06,350.52,1508.91,359.72,1544.77,359.72Zm-162.51-32.18h-20.91V235.6h20.91c25.75,0,37,15.63,37,46S1408,327.54,1382.26,327.54Zm3.91,29.88c47.58,0,73.55-27.36,73.55-75.85s-26-75.85-73.55-75.85h-64.36v151.7Zm-199.74,0V280.88l-.92-28.5h.23l11.49,23,47.12,82.06h43.9V205.72h-34.93v76.54l.92,28.5H1254l-11.5-23-47.12-82h-43.9v151.7Zm-133.77,2.3c44.82,0,67.8-21.38,67.8-64.13V205.72h-39.3v90.56c0,21.83-9.43,32.41-28.5,32.41-18.85,0-28-10.58-28-32.41V205.72H984.85v89.87C984.85,338.34,1008.07,359.72,1052.66,359.72Zm25-166.88c12.41,0,19.77-6.66,19.77-17.69s-7.36-17.7-19.77-17.7c-12,0-19.31,6.66-19.31,17.7S1065.76,192.84,1077.71,192.84Zm-50.57,0c12.42,0,19.77-6.66,19.77-17.69s-7.35-17.7-19.77-17.7c-12,0-19.3,6.66-19.3,17.7S1015.19,192.84,1027.14,192.84ZM963.7,357.42V327.54H876.59L961,234.22v-28.5H835.22V235.6h83.2l-84.81,93.32v28.5Z" style="fill:none"/></clipPath><clipPath id="clip-path-2"><path d="M678.56,111,121.46,866.77v-79.1l464.2-629.79H188.09l-23.51,32.23,19.28,33.1H460.43l-34.73,47H156.85l-48.29-83L164.27,111Zm0,97.27v79.11L214.34,917.12H611.9l23.55-32.23-19.3-33.11H339.56l34.74-46.94H643.15l48.29,83-55.68,76.25H121.44Z" style="fill:none;clip-rule:evenodd"/></clipPath></defs><title>logos</title><g style="clip-path:url(#clip-path)"><rect x="729.13" y="52.97" width="2460.35" height="954.51"/></g><g style="clip-path:url(#clip-path-2)"><rect x="25.02" y="27.41" width="749.95" height="1020.19" style="fill:#cb5133"/></g></svg>